<svg version="1.2" xmlns="http://www.w3.org/2000/svg" viewBox="0 0 445 347" width="445" height="347">
	<style>
		.s0 { fill: #000000 } 
	</style>
	<path id="Path 0" fill-rule="evenodd" class="s0" d="m223.5 0.16c97.4-0.09 151.08 0.21 157 0.9 5.04 0.59 11.86 2.18 15.5 3.63 3.57 1.42 9.65 4.44 13.5 6.7 3.85 2.26 9.96 7.03 13.59 10.61 3.62 3.58 8.45 9.65 10.74 13.5 2.29 3.85 5.7 11.5 11.01 27l-0.47 66c-0.37 53.14-0.75 67.46-1.95 73.5-0.83 4.13-3.04 10.65-4.92 14.5-1.89 3.85-5.63 9.93-8.32 13.5-2.69 3.57-7.54 8.64-10.78 11.26-3.25 2.62-10.4 7-15.9 9.72-5.5 2.73-12.02 5.45-14.5 6.05-2.99 0.72-38.33 1.28-206.5 2.27l-41.5 40.77c-22.83 22.42-43.05 42.04-44.94 43.6-2.89 2.38-4.36 2.83-9.18 2.83-4.17 0-6.47-0.55-8.44-2-1.48-1.1-3.65-3.27-4.82-4.82-2.06-2.75-2.13-3.83-2.37-41.75-0.23-36.13-0.38-38.96-2-39.36-0.96-0.23-3.78-0.71-6.25-1.07-2.48-0.35-7.42-1.57-11-2.71-3.58-1.14-8.53-3.07-11-4.3-2.48-1.23-7.42-4.55-11-7.37-3.58-2.82-8.89-7.94-11.82-11.37-2.92-3.44-7.05-9.85-9.18-14.25-2.12-4.4-4.65-10.7-5.6-14-1.55-5.36-1.78-13.2-2.6-141l2.49-7c1.38-3.85 3.59-9.48 4.92-12.5 1.32-3.03 3.78-7.53 5.45-10 1.67-2.48 6.14-7.6 9.94-11.39 3.79-3.79 9.82-8.61 13.4-10.71 3.57-2.1 9.65-5.02 13.5-6.5 4.82-1.85 9.96-2.9 16.5-3.39 5.22-0.39 76.1-0.77 157.5-0.85zm21.31 39.99l0.19 179.85c4.26 3.15 6.31 4.05 7.3 4.03 0.98-0.01 2.9-1.15 4.25-2.53l2.45-2.5v-178c-3.88-3.88-5.83-5-6.85-5-1.01 0-3.08 0.93-4.59 2.07zm-86.72 29.77l-0.09 120.09c3.87 3.87 5.92 5 7.04 5 1.13 0 3.15-1.13 4.5-2.5l2.46-2.5c0-105.11-0.29-119.58-1.25-121.49-0.69-1.37-2.15-2.71-3.25-2.99-1.1-0.27-2.59-0.5-3.3-0.51-0.71-0.01-2.38 1.09-3.7 2.44zm57.7 0.36c0.14 117.95 0.18 119.29 2.17 121.98 1.44 1.94 2.92 2.75 5.04 2.75 2.11 0 3.6-0.81 5.03-2.75 1.99-2.69 2.04-3.98 2.04-62.25 0-58.27-0.05-59.55-2.04-62.25-1.41-1.91-2.93-2.75-4.97-2.75q-2.93 0-5.1 2.64zm59.41-1.73c-0.9 1.84-1.2 17.57-1.2 61.96v59.5c3.87 3.87 5.92 5 7.04 5 1.13 0 3.15-1.13 4.5-2.5l2.46-2.5v-120c-3.88-3.88-5.79-4.95-6.75-4.89-0.97 0.07-2.45 0.31-3.3 0.55-0.85 0.24-2.09 1.54-2.75 2.88zm-146.33 61.84c0.07 31.01 0.08 31.13 2.35 33.35 1.25 1.22 3.4 2.25 4.78 2.29 1.37 0.03 3.62-0.82 5-1.89l2.5-1.95c0.45-46.25 0.34-60.69 0.04-61.93-0.3-1.24-1.44-3.15-2.54-4.25-1.1-1.1-3.32-2-4.94-2q-2.93 0-5.1 2.63c-2.13 2.59-2.17 3.25-2.09 33.75zm58.22-31.47l-0.09 62.09c3.87 3.87 6.01 5.01 7.25 5.02 1.23 0.02 3.25-0.99 4.48-2.25 2.2-2.25 2.22-2.57 2.27-33.77 0.05-31.48 0.05-31.5-2.23-33.73-1.25-1.23-3.31-2.24-4.57-2.25-1.26-0.01-3.38 1.08-4.7 2.43zm115.36 1.34c-0.3 1.24-0.41 15.68-0.25 32.09l0.3 29.84c3.87 3.03 6.23 3.89 7.75 3.87 1.8-0.03 3.44-0.99 4.78-2.8 1.94-2.62 2.03-4.14 2.03-33.25 0-29.1-0.09-30.62-2.03-33.25-1.43-1.93-2.92-2.75-5.03-2.75-1.67 0-3.89 0.89-5 2-1.1 1.1-2.25 3.02-2.55 4.25z"/>
</svg>